# xmcd
#
# Track frame offsets: 
#        150
#        20547
#        41590
#        59941
#        81209
#        106970
#        127977
#        145263
#        166049
#        189285
#        207067
#        229119
#        250778
#        274491
#        296316
#
# Disc length: 4203 seconds
#
# Revision: 1
# Processed by: cddbd v1.5.2PL0 Copyright (c) Steve Scherf et al.
# Submitted via: ExactAudioCopyFreeDBPlugin 1.0
#
DISCID=d210690f
DTITLE=群星 - TEST-CD试音极品18CDA
DYEAR=2013
DGENRE=stereo
TTITLE0=我是真的真的爱你我的宝贝
TTITLE1=如果爱你只有一次
TTITLE2=春暖花开
TTITLE3=谁为我停留
TTITLE4=谁在窗外流泪
TTITLE5=小情歌
TTITLE6=为你我受冷风吹
TTITLE7=会哭的人不一定流泪
TTITLE8=爱情物语
TTITLE9=借我一点爱
TTITLE10=谁见过梦中的草原梦中的河
TTITLE11=难忍的悲
TTITLE12=老地方的雨
TTITLE13=风平浪静
TTITLE14=你寂寞才找我
EXTD=
EXTT0=
EXTT1=
EXTT2=
EXTT3=
EXTT4=
EXTT5=
EXTT6=
EXTT7=
EXTT8=
EXTT9=
EXTT10=
EXTT11=
EXTT12=
EXTT13=
EXTT14=
PLAYORDER=
